<svg width="282" height="93" viewBox="0 0 282 93" fill="none" xmlns="http://www.w3.org/2000/svg">
<path fill-rule="evenodd" clip-rule="evenodd" d="M269.098 51.7712C266.09 46.2659 248.033 9.86205 245.404 6.68274C242.769 3.08365 237.133 -0.721891 229.604 0.117668C217.947 1.17744 214.182 13.2409 208.539 24.2446C206.661 28.0502 194.246 52.6038 192.746 53.8769C191.239 52.3905 191.239 51.3376 187.853 48.3716C186.346 46.8852 183.711 45.619 181.46 44.3528C184.846 40.7537 187.482 39.0608 189.36 33.349C190.861 28.0502 190.861 22.3384 188.61 17.2667C184.846 8.7954 177.324 4.34987 166.039 2.02388C156.631 0.330998 138.959 1.38389 128.795 1.38389C112.995 1.38389 109.231 4.35675 109.231 20.0124V76.7446C109.231 93.6734 122.017 91.9805 131.802 91.9805C150.231 91.9805 168.289 93.8936 182.96 86.6954C185.218 88.3883 185.596 90.0812 189.353 91.774C192.368 93.0403 196.125 93.2536 199.139 91.9805C207.789 88.3814 204.782 82.2499 211.175 81.1901C216.44 80.3437 228.476 80.9768 234.125 80.9768C239.011 80.9768 252.176 79.917 255.19 82.6696C257.069 84.1492 257.826 87.1152 260.083 89.2347C267.226 96.0062 278.89 92.6205 281.526 83.5161C283.405 76.9579 279.269 71.2462 276.633 66.5873C273.997 61.5018 271.74 56.6365 269.105 51.7712H269.098Z" fill="#38485C"/>
<path d="M8.08762 90.3495C5.51429 90.3495 3.52302 89.6517 2.11381 88.2561C0.704603 86.8604 0 84.8277 0 82.1578V52.0303C0 49.4211 0.673969 47.4187 2.02191 46.023C3.43111 44.6274 5.42238 43.9296 7.99571 43.9296C10.569 43.9296 12.5297 44.6274 13.8776 46.023C15.2256 47.4187 15.8995 49.4211 15.8995 52.0303V57.0364L14.8886 52.5764C16.1752 49.9065 18.0746 47.7828 20.5867 46.2051C23.16 44.5667 26.1929 43.7476 29.6852 43.7476C32.9938 43.7476 35.8122 44.5364 38.1405 46.1141C40.53 47.6917 42.2456 50.0886 43.2871 53.3046H42.0005C43.4097 50.3313 45.5235 47.9951 48.3419 46.2961C51.1603 44.5971 54.2851 43.7476 57.7162 43.7476C61.2698 43.7476 64.1802 44.4454 66.4472 45.841C68.7141 47.176 70.3991 49.2997 71.5019 52.2124C72.666 55.0643 73.2481 58.6747 73.2481 63.0437V82.1578C73.2481 84.8277 72.5129 86.8604 71.0424 88.2561C69.6332 89.6517 67.6113 90.3495 64.9767 90.3495C62.4033 90.3495 60.4121 89.6517 59.0029 88.2561C57.5937 86.8604 56.8891 84.8277 56.8891 82.1578V63.4988C56.8891 60.8896 56.4908 59.0085 55.6943 57.8556C54.8978 56.7027 53.5805 56.1262 51.7424 56.1262C49.4754 56.1262 47.7292 56.915 46.5038 58.4927C45.3397 60.0704 44.7576 62.3155 44.7576 65.2281V82.1578C44.7576 84.8277 44.053 86.8604 42.6438 88.2561C41.2346 89.6517 39.2127 90.3495 36.5781 90.3495C33.9435 90.3495 31.9216 89.6517 30.5124 88.2561C29.1032 86.8604 28.3986 84.8277 28.3986 82.1578V63.4988C28.3986 60.8896 28.0003 59.0085 27.2038 57.8556C26.4073 56.7027 25.09 56.1262 23.2519 56.1262C21.0462 56.1262 19.3306 56.915 18.1052 58.4927C16.9411 60.0704 16.359 62.3155 16.359 65.2281V82.1578C16.359 87.6189 13.6019 90.3495 8.08762 90.3495Z" fill="#38485C"/>
<path d="M90.8335 90.3495C88.2602 90.3495 86.2689 89.591 84.8597 88.074C83.4505 86.557 82.7459 84.3726 82.7459 81.5206V52.7585C82.7459 49.9065 83.4505 47.7221 84.8597 46.2051C86.2689 44.6881 88.2602 43.9296 90.8335 43.9296C93.4681 43.9296 95.49 44.6881 96.8992 46.2051C98.3697 47.7221 99.1049 49.9065 99.1049 52.7585V81.5206C99.1049 84.3726 98.4003 86.557 96.9911 88.074C95.5819 89.591 93.5294 90.3495 90.8335 90.3495ZM90.8335 37.4672C87.9538 37.4672 85.7175 36.7997 84.1245 35.4648C82.5927 34.1298 81.8268 32.1881 81.8268 29.6395C81.8268 27.1517 82.5927 25.2403 84.1245 23.9053C85.7175 22.5704 87.9538 21.9029 90.8335 21.9029C93.8357 21.9029 96.1027 22.5704 97.6345 23.9053C99.1662 25.2403 99.9321 27.1517 99.9321 29.6395C99.9321 32.1881 99.1662 34.1298 97.6345 35.4648C96.1027 36.7997 93.8357 37.4672 90.8335 37.4672Z" fill="#38485C"/>
</svg>
